<svg width="150" height="20" viewBox="0 0 150 20" fill="none" xmlns="http://www.w3.org/2000/svg">
<path fill-rule="evenodd" clip-rule="evenodd" d="M32.9782 6.26497C32.835 7.21042 31.9809 8.25405 30.3461 8.25405H24.431L25.0282 4.30684H30.9401C32.5749 4.30684 33.1191 5.32102 32.9782 6.26497ZM23.9367 11.5299H28.8078L31.1542 17.1989C31.3815 17.7736 31.8836 18.1429 32.7875 18.1429C33.9334 18.1429 34.8622 17.3001 35.0148 16.2867C35.0646 15.9491 35.0116 15.6123 34.8762 15.3435L33.0708 10.9568C35.4982 10.0785 36.7664 8.35525 37.0762 6.29593C37.5192 3.36516 35.7886 1 30.8148 1H23.44C22.2909 1 21.2143 1.90997 21.0477 3.02383L19.0695 16.1198C18.9029 17.2314 19.7048 18.1429 20.8531 18.1429C22.0021 18.1429 23.0803 17.2314 23.2469 16.1198L23.9367 11.5299Z" fill="#00ACFF"/>
<path fill-rule="evenodd" clip-rule="evenodd" d="M46.8519 6.0131L48.4038 11.2329H43.6432L46.8519 6.0131ZM49.2302 2.0633C48.9445 1.39781 48.5482 1 47.6286 1C46.7138 1 46.1565 1.39781 45.7002 2.0633L36.5531 15.5515C36.4095 15.7872 36.254 16.1159 36.2121 16.3799C36.0566 17.3792 36.7497 18.1429 37.9116 18.1429C38.8304 18.1429 39.4303 17.6766 39.8921 16.9799L41.7637 14.254H49.3818L50.4032 16.9799C50.6495 17.6766 51.1065 18.1429 52.0253 18.1429C53.1857 18.1429 54.1179 17.3792 54.2726 16.3799C54.3113 16.1159 54.2584 15.7872 54.1874 15.5515L49.2302 2.0633Z" fill="#00ACFF"/>
<path fill-rule="evenodd" clip-rule="evenodd" d="M63.7465 4.44035H68.4086C69.389 4.44035 70.3129 3.66786 70.4572 2.72471C70.6008 1.77702 69.9129 1 68.9333 1H55.4012C54.4185 1 53.4977 1.77702 53.3526 2.72471C53.2075 3.66786 53.8992 4.44035 54.8804 4.44035H59.5433L57.7683 16.1191C57.595 17.2307 58.406 18.1429 59.5597 18.1429C60.7182 18.1429 61.8045 17.2307 61.9731 16.1191L63.7465 4.44035Z" fill="#00ACFF"/>
<path fill-rule="evenodd" clip-rule="evenodd" d="M75.4234 6.0131L76.9792 11.2329H72.2146L75.4234 6.0131ZM77.8017 2.0633C77.5128 1.39781 77.1174 1 76.2025 1C75.2852 1 74.7279 1.39781 74.2709 2.0633L65.1236 15.5515C64.9815 15.7872 64.8252 16.1159 64.7834 16.3799C64.6287 17.3792 65.3209 18.1429 66.4869 18.1429C67.3994 18.1429 68.0032 17.6766 68.4666 16.9799L70.3327 14.254H77.9533L78.9748 16.9799C79.2226 17.6766 79.6781 18.1429 80.5946 18.1429C81.7557 18.1429 82.6864 17.3792 82.8443 16.3799C82.8829 16.1159 82.8285 15.7872 82.759 15.5515L77.8017 2.0633Z" fill="#00ACFF"/>
<path fill-rule="evenodd" clip-rule="evenodd" d="M92.3163 4.44035H96.9791C97.9596 4.44035 98.8869 3.66786 99.0288 2.72471C99.1716 1.77702 98.4837 1 97.5023 1H83.9721C82.9892 1 82.0667 1.77702 81.9239 2.72471C81.7796 3.66786 82.466 4.44035 83.4481 4.44035H88.1117L86.3364 16.1191C86.1686 17.2307 86.975 18.1429 88.1336 18.1429C89.2907 18.1429 90.3724 17.2307 90.5411 16.1191L92.3163 4.44035Z" fill="#00ACFF"/>
<path fill-rule="evenodd" clip-rule="evenodd" d="M114.539 3.89011C114.935 3.45588 115.15 3.15773 115.217 2.69228C115.36 1.73015 114.764 1 113.626 1C112.855 1 112.413 1.26395 111.938 1.76286L106.413 7.64568L102.622 1.76286C102.351 1.32938 101.931 1 101.159 1C100.019 1 99.2072 1.73015 99.0663 2.69228C98.9973 3.15773 99.1225 3.45588 99.3932 3.89011L103.907 11.0005L103.149 16.1502C102.986 17.2454 103.757 18.1429 104.864 18.1429C105.971 18.1429 107.004 17.2454 107.168 16.1502L107.926 11.0005L114.539 3.89011Z" fill="#00ACFF"/>
<path fill-rule="evenodd" clip-rule="evenodd" d="M128.288 6.29593C128.15 7.24441 127.331 8.25405 125.75 8.25405H120.44L121.011 4.34158H126.322C127.902 4.34158 128.426 5.35349 128.288 6.29593ZM119.952 11.5956H124.727C129.532 11.5956 131.889 9.26974 132.316 6.3352C132.746 3.39838 131.079 1 126.272 1H119.48C118.371 1 117.331 1.90997 117.168 3.02383L115.26 16.1198C115.097 17.2314 115.873 18.1429 116.983 18.1429C118.093 18.1429 119.133 17.2314 119.294 16.1198L119.952 11.5956Z" fill="#00ACFF"/>
<path fill-rule="evenodd" clip-rule="evenodd" d="M138.252 11.1818H143.009C143.985 11.1818 144.9 10.3931 145.04 9.43486C145.182 8.472 144.503 7.68329 143.527 7.68329H138.77L139.242 4.49471H147.474C148.446 4.49471 149.362 3.70984 149.505 2.75157C149.647 1.78871 148.966 1 147.992 1H137.677C136.53 1 135.454 1.92451 135.287 3.05539L133.355 16.0844C133.191 17.216 133.99 18.1429 135.139 18.1429H145.867C146.843 18.1429 147.759 17.3565 147.902 16.3913C148.041 15.4346 147.36 14.6466 146.386 14.6466H137.736L138.252 11.1818Z" fill="#00ACFF"/>
<path fill-rule="evenodd" clip-rule="evenodd" d="M14.8389 8.56799H8.41742C7.45207 8.56799 6.55439 9.32684 6.41199 10.2617C6.26959 11.1973 6.94069 11.9562 7.90524 11.9562H14.3259C15.2944 11.9562 16.1913 11.1973 16.3313 10.2617C16.4737 9.32684 15.8042 8.56799 14.8389 8.56799ZM15.9513 1.19275H2.02193C1.05738 1.19275 0.160481 1.95313 0.0188659 2.88875C-0.122749 3.82589 0.548348 4.58551 1.5129 4.58551H15.4431C16.4076 4.58551 17.303 3.82589 17.4454 2.88875C17.5838 1.95313 16.9175 1.19275 15.9513 1.19275Z" fill="#1AE4FD"/>
</svg>
